<?xml version="1.0" encoding="iso-8859-1"?>
<!-- Generator: Adobe Illustrator 19.0.0, SVG Export Plug-In . SVG Version: 6.00 Build 0)  -->
<svg version="1.1" id="Capa_1" xmlns="http://www.w3.org/2000/svg" xmlns:xlink="http://www.w3.org/1999/xlink" x="0px" y="0px"
	 viewBox="0 0 512 512" style="enable-background:new 0 0 512 512;" xml:space="preserve">
<g>
	<g>
		<path d="M474.476,327.033c-21.055-12.156-102.244-45.654-160.273-57.754c-2.689-8.685-7.306-16.527-13.342-23.037
			c7.731-23.478,14.352-52.576,19.466-80.368c32.586,17.409,57.004,47.626,66.823,83.677c2.177,7.992,10.42,12.707,18.414,10.53
			c7.992-2.177,12.707-10.421,10.529-18.414c-12.883-47.299-46.317-86.377-90.585-106.688c1.707-11.266,3.097-21.771,4.138-30.944
			c68.609,27.636,116.718,92.879,121.767,167.591c0.535,7.92,7.127,13.988,14.95,13.988c0.34,0,0.683-0.011,1.026-0.035
			c8.265-0.559,14.512-7.711,13.953-15.977c-6.236-92.276-67.657-167.961-149.525-196.808
			c-1.176-40.331-34.327-72.786-74.939-72.786c-41.352,0-74.995,33.643-74.995,74.995c0,23.955,12.228,114.196,31.012,171.238
			c-6.036,6.51-10.653,14.35-13.342,23.034c-23.781,4.943-51.572,13.443-77.571,22.589c-1.346-37.503,12.645-73.204,39.091-99.873
			c5.833-5.882,5.793-15.379-0.089-21.211c-5.883-5.833-15.378-5.794-21.212,0.089c-35.808,36.11-51.643,84.332-47.127,131.848
			c-10.592,4.112-20.368,8.121-28.814,11.772c-10.476-74.3,22.141-147.485,84.226-189.323c6.87-4.629,8.685-13.951,4.057-20.82
			c-4.629-6.869-13.949-8.685-20.82-4.056C56.749,150.524,19.331,239.752,35.676,328.163C1.216,349.378-10.3,394.185,10.079,429.478
			c20.557,35.604,66.068,48.186,102.071,27.664c0.124-0.07,0.249-0.142,0.373-0.214c0.001,0,0.003-0.001,0.003-0.001
			c20.273-11.706,91.15-66.739,131.041-111.449c8.733,1.987,17.692,2.031,26.613,0.002c15.808,17.782,36.583,37.508,57.151,55.499
			c-31.898,20.227-70.6,26.067-106.64,16.551c-8.009-2.115-16.216,2.664-18.331,10.672c-2.115,8.009,2.664,16.217,10.673,18.332
			c46.608,12.306,97.415,3.69,138.067-25.426c8.744,7.164,17.043,13.694,24.433,19.264c-59.552,46.862-140.039,54.21-206.135,21.799
			c-7.435-3.646-16.424-0.574-20.07,6.864c-3.647,7.438-0.574,16.424,6.864,20.071c78.449,38.467,175.345,28.677,245.163-31.136
			c35.354,19.121,80.065,7.026,100.572-28.491C522.651,393.581,510.377,347.759,474.476,327.033z M97.523,430.948
			c-21.537,12.436-49.03,5.071-61.467-16.471c-12.436-21.538-5.07-49.029,16.47-61.467c16.827-9.714,91.034-40.179,145.845-52.782
			c2.721,12.024,9.052,22.688,17.804,30.785C177.378,372.698,113.797,421.553,97.523,430.948z M256.877,316.985
			c-16.541,0-29.998-13.457-29.998-29.998c0-16.541,13.457-29.998,29.998-29.998s29.998,13.457,29.998,29.998
			C286.875,303.528,273.418,316.985,256.877,316.985z M274.64,229.678c-11.519-3.578-23.982-3.586-35.526,0
			c-16.449-54.189-27.234-136.023-27.234-154.675c0.001-24.811,20.186-44.997,44.998-44.997c24.811,0,44.997,20.186,44.997,44.997
			C301.874,93.71,291.064,175.574,274.64,229.678z M475.947,414.478c-12.435,21.538-39.925,28.907-61.467,16.47
			c-17.409-10.051-79.408-59.492-116.911-99.926c8.749-8.091,15.082-18.75,17.806-30.766
			c54.262,12.646,127.695,43.283,144.103,52.755C481.017,365.448,488.382,392.939,475.947,414.478z"/>
	</g>
</g>
<g>
</g>
<g>
</g>
<g>
</g>
<g>
</g>
<g>
</g>
<g>
</g>
<g>
</g>
<g>
</g>
<g>
</g>
<g>
</g>
<g>
</g>
<g>
</g>
<g>
</g>
<g>
</g>
<g>
</g>
</svg>
